<svg xmlns="http://www.w3.org/2000/svg" width="905" height="690" fill="none" viewBox="0 0 905 690">
  <path fill="#fff" d="M8.935 12.143H4.631l-3.348-2.88v-6.24L5.109.143h3.348l3.826 2.88v6.24l-3.348 2.88ZM89.652 13h-4.304L82 10.12V3.88L85.826 1h3.348L93 3.88v6.24L89.652 13Zm160.104-.986h-4.305l-3.347-2.88v-6.24l3.826-2.88h3.348l3.826 2.88v6.24l-3.348 2.88Zm160.103 0h-4.304l-3.348-2.88v-6.24l3.826-2.88h3.348l3.826 2.88v6.24l-3.348 2.88Zm160.104 0h-4.304l-3.348-2.88v-6.24l3.826-2.88h3.348l3.826 2.88v6.24l-3.348 2.88Zm160.104 0h-4.304l-3.348-2.88v-6.24l3.826-2.88h3.348l3.826 2.88v6.24l-3.348 2.88ZM890.171 13h-4.305l-3.348-2.88V3.88L886.345 1h3.347l3.826 2.88v6.24L890.171 13ZM8.624 73.129H4.32l-3.348-2.88v-6.24l3.826-2.88h3.348l3.826 2.88v6.24l-3.348 2.88Zm160.104-.986h-4.304l-3.348-2.88v-6.24l3.826-2.88h3.348l3.826 2.88v6.24l-3.348 2.88Zm160.103 0h-4.304l-3.348-2.88v-6.24l3.826-2.88h3.348l3.826 2.88v6.24l-3.348 2.88Zm160.104 0h-4.304l-3.348-2.88v-6.24l3.826-2.88h3.348l3.826 2.88v6.24l-3.348 2.88Zm160.104 0h-4.305l-3.347-2.88v-6.24l3.826-2.88h3.348l3.826 2.88v6.24l-3.348 2.88Zm160.103.986h-4.304l-3.348-2.88v-6.24l3.826-2.88h3.348l3.826 2.88v6.24l-3.348 2.88ZM88.935 133.143h-4.304l-3.348-2.88v-6.24l3.826-2.88h3.348l3.826 2.88v6.24l-3.348 2.88Zm159.845-.872h-4.305l-3.348-2.88v-6.24l3.827-2.88h3.347l3.826 2.88v6.24l-3.347 2.88Zm160.103 0h-4.304l-3.348-2.88v-6.24l3.826-2.88h3.348l3.826 2.88v6.24l-3.348 2.88Zm160.104 0h-4.304l-3.348-2.88v-6.24l3.826-2.88h3.348l3.826 2.88v6.24l-3.348 2.88Zm160.104 0h-4.305l-3.348-2.88v-6.24l3.827-2.88h3.347l3.826 2.88v6.24l-3.347 2.88Zm160.103.986h-4.304l-3.348-2.88v-6.24l3.826-2.88h3.348l3.826 2.88v6.24l-3.348 2.88ZM9.935 195.143H5.631l-3.348-2.88v-6.24l3.826-2.88h3.348l3.826 2.88v6.24l-3.348 2.88Zm159.769-.772H165.4l-3.348-2.88v-6.24l3.826-2.88h3.348l3.826 2.88v6.24l-3.348 2.88Zm160.104 0h-4.305l-3.347-2.88v-6.24l3.826-2.88h3.347l3.827 2.88v6.24l-3.348 2.88Zm160.103 0h-4.304l-3.348-2.88v-6.24l3.826-2.88h3.348l3.826 2.88v6.24l-3.348 2.88Zm160.104 0h-4.304l-3.348-2.88v-6.24l3.826-2.88h3.348l3.826 2.88v6.24l-3.348 2.88Zm160.104.986h-4.305l-3.347-2.88v-6.24l3.826-2.88h3.347l3.827 2.88v6.24l-3.348 2.88ZM88.935 254.143h-4.304l-3.348-2.88v-6.24l3.826-2.88h3.348l3.826 2.88v6.24l-3.348 2.88Zm159.845-.629h-4.305l-3.348-2.88v-6.24l3.827-2.88h3.347l3.826 2.88v6.24l-3.347 2.88Zm160.103 0h-4.304l-3.348-2.88v-6.24l3.826-2.88h3.348l3.826 2.88v6.24l-3.348 2.88Zm160.104 0h-4.304l-3.348-2.88v-6.24l3.826-2.88h3.348l3.826 2.88v6.24l-3.348 2.88Zm160.104 0h-4.305l-3.348-2.88v-6.24l3.827-2.88h3.347l3.826 2.88v6.24l-3.347 2.88Zm160.103.986h-4.304l-3.348-2.88v-6.24l3.826-2.88h3.348l3.826 2.88v6.24l-3.348 2.88ZM8.935 315.143H4.631l-3.348-2.88v-6.24l3.826-2.88h3.348l3.826 2.88v6.24l-3.348 2.88Zm159.793-.514h-4.304l-3.348-2.88v-6.24l3.826-2.88h3.348l3.826 2.88v6.24l-3.348 2.88Zm160.103 0h-4.304l-3.348-2.88v-6.24l3.826-2.88h3.348l3.826 2.88v6.24l-3.348 2.88Zm160.104 0h-4.304l-3.348-2.88v-6.24l3.826-2.88h3.348l3.826 2.88v6.24l-3.348 2.88Zm160.104 0h-4.305l-3.347-2.88v-6.24l3.826-2.88h3.348l3.826 2.88v6.24l-3.348 2.88Zm160.103.985h-4.304l-3.348-2.88v-6.24l3.826-2.88h3.348l3.826 2.88v6.24l-3.348 2.88ZM88.935 377.143h-4.304l-3.348-2.88v-6.24l3.826-2.88h3.348l3.826 2.88v6.24l-3.348 2.88Zm159.845-1.4h-4.305l-3.348-2.88v-6.24l3.827-2.88h3.347l3.826 2.88v6.24l-3.347 2.88Zm160.103 0h-4.304l-3.348-2.88v-6.24l3.826-2.88h3.348l3.826 2.88v6.24l-3.348 2.88Zm160.104 0h-4.304l-3.348-2.88v-6.24l3.826-2.88h3.348l3.826 2.88v6.24l-3.348 2.88Zm160.104 0h-4.305l-3.348-2.88v-6.24l3.827-2.88h3.347l3.826 2.88v6.24l-3.347 2.88Zm160.103.986h-4.304l-3.348-2.88v-6.24l3.826-2.88h3.348l3.826 2.88v6.24l-3.348 2.88ZM9.935 436.143H5.631l-3.348-2.88v-6.24l3.826-2.88h3.348l3.826 2.88v6.24l-3.348 2.88Zm159.769-1.257H165.4l-3.348-2.88v-6.24l3.826-2.88h3.348l3.826 2.88v6.24l-3.348 2.88Zm160.104 0h-4.305l-3.347-2.88v-6.24l3.826-2.88h3.347l3.827 2.88v6.24l-3.348 2.88Zm160.103 0h-4.304l-3.348-2.88v-6.24l3.826-2.88h3.348l3.826 2.88v6.24l-3.348 2.88Zm160.104 0h-4.304l-3.348-2.88v-6.24l3.826-2.88h3.348l3.826 2.88v6.24l-3.348 2.88Zm160.104.985h-4.305l-3.347-2.88v-6.24l3.826-2.88h3.347l3.827 2.88v6.24l-3.348 2.88ZM89.935 497.143h-4.304l-3.348-2.88v-6.24l3.826-2.88h3.348l3.826 2.88v6.24l-3.348 2.88ZM249.756 496h-4.305l-3.347-2.88v-6.24l3.826-2.88h3.348l3.826 2.88v6.24l-3.348 2.88Zm160.103 0h-4.304l-3.348-2.88v-6.24l3.826-2.88h3.348l3.826 2.88v6.24l-3.348 2.88Zm160.104 0h-4.304l-3.348-2.88v-6.24l3.826-2.88h3.348l3.826 2.88v6.24l-3.348 2.88Zm160.104 0h-4.304l-3.348-2.88v-6.24l3.826-2.88h3.348l3.826 2.88v6.24l-3.348 2.88Zm160.104.986h-4.305l-3.348-2.88v-6.24l3.827-2.88h3.347l3.826 2.88v6.24l-3.347 2.88ZM8.935 559.143H4.631l-3.348-2.88v-6.24l3.826-2.88h3.348l3.826 2.88v6.24l-3.348 2.88Zm159.793-1.043h-4.304l-3.348-2.88v-6.24l3.826-2.88h3.348l3.826 2.88v6.24l-3.348 2.88Zm160.103 0h-4.304l-3.348-2.88v-6.24l3.826-2.88h3.348l3.826 2.88v6.24l-3.348 2.88Zm160.104 0h-4.304l-3.348-2.88v-6.24l3.826-2.88h3.348l3.826 2.88v6.24l-3.348 2.88Zm160.104 0h-4.305l-3.347-2.88v-6.24l3.826-2.88h3.348l3.826 2.88v6.24l-3.348 2.88Zm160.103.986h-4.304l-3.348-2.88v-6.24l3.826-2.88h3.348l3.826 2.88v6.24l-3.348 2.88ZM89.935 617.143h-4.304l-3.348-2.88v-6.24l3.826-2.88h3.348l3.826 2.88v6.24l-3.348 2.88Zm159.821-.886h-4.305l-3.347-2.88v-6.24l3.826-2.88h3.348l3.826 2.88v6.24l-3.348 2.88Zm160.103 0h-4.304l-3.348-2.88v-6.24l3.826-2.88h3.348l3.826 2.88v6.24l-3.348 2.88Zm160.104 0h-4.304l-3.348-2.88v-6.24l3.826-2.88h3.348l3.826 2.88v6.24l-3.348 2.88Zm160.104 0h-4.304l-3.348-2.88v-6.24l3.826-2.88h3.348l3.826 2.88v6.24l-3.348 2.88Zm160.104.986h-4.305l-3.348-2.88v-6.24l3.827-2.88h3.347l3.826 2.88v6.24l-3.347 2.88Zm-880.236 59.9H5.631l-3.348-2.88v-6.24l3.826-2.88h3.348l3.826 2.88v6.24l-3.348 2.88Zm159.769-.757H165.4l-3.348-2.88v-6.24l3.826-2.88h3.348l3.826 2.88v6.24l-3.348 2.88Zm160.104 0h-4.305l-3.347-2.88v-6.24l3.826-2.88h3.347l3.827 2.88v6.24l-3.348 2.88Zm160.103 0h-4.304l-3.348-2.88v-6.24l3.826-2.88h3.348l3.826 2.88v6.24l-3.348 2.88Zm160.104 0h-4.304l-3.348-2.88v-6.24l3.826-2.88h3.348l3.826 2.88v6.24l-3.348 2.88Zm160.104.985h-4.305l-3.347-2.88v-6.24l3.826-2.88h3.347l3.827 2.88v6.24l-3.348 2.88Z"/>
</svg>
